<svg width="24" height="25" viewBox="0 0 24 25" fill="none" xmlns="http://www.w3.org/2000/svg">
<g id="vuesax/bulk/briefcase">
<g id="briefcase">
<path id="Vector" d="M21.09 7.06352C20.24 6.12352 18.82 5.65352 16.76 5.65352H16.52V5.61352C16.52 3.93352 16.52 1.85352 12.76 1.85352H11.24C7.48001 1.85352 7.48001 3.94352 7.48001 5.61352V5.66352H7.24001C5.17001 5.66352 3.76001 6.13352 2.91001 7.07352C1.92001 8.17352 1.95001 9.65351 2.05001 10.6635L2.06001 10.7335L2.16001 11.7835C2.17001 11.7935 2.19001 11.8135 2.21001 11.8235C2.54001 12.0435 2.88001 12.2635 3.24001 12.4635C3.38001 12.5535 3.53001 12.6335 3.68001 12.7135C5.39001 13.6535 7.27001 14.2835 9.18001 14.5935C9.27001 15.5335 9.68001 16.6335 11.87 16.6335C14.06 16.6335 14.49 15.5435 14.56 14.5735C16.6 14.2435 18.57 13.5335 20.35 12.4935C20.41 12.4635 20.45 12.4335 20.5 12.4035C20.96 12.1435 21.39 11.8635 21.81 11.5535C21.83 11.5435 21.85 11.5235 21.86 11.5035L21.9 11.1435L21.95 10.6735C21.96 10.6135 21.96 10.5635 21.97 10.4935C22.05 9.48351 22.03 8.10352 21.09 7.06352ZM13.09 13.9135C13.09 14.9735 13.09 15.1335 11.86 15.1335C10.63 15.1335 10.63 14.9435 10.63 13.9235V12.6635H13.09V13.9135ZM8.91001 5.65352V5.61352C8.91001 3.91352 8.91001 3.28352 11.24 3.28352H12.76C15.09 3.28352 15.09 3.92352 15.09 5.61352V5.66352H8.91001V5.65352Z" fill="white"/>
<path id="Vector_2" opacity="0.4" d="M20.5 12.3834C20.45 12.4134 20.4 12.4434 20.35 12.4734C18.57 13.5134 16.6 14.2134 14.56 14.5534C14.48 15.5134 14.06 16.6134 11.87 16.6134C9.68 16.6134 9.26 15.5234 9.18 14.5734C7.27 14.2734 5.39 13.6434 3.68 12.6934C3.53 12.6134 3.38 12.5334 3.24 12.4434C2.88 12.2434 2.54 12.0234 2.21 11.8034C2.19 11.7934 2.17 11.7734 2.16 11.7634L2.77 18.2734C2.98 20.2634 3.8 22.3134 8.2 22.3134H15.82C20.22 22.3134 21.04 20.2634 21.25 18.2634L21.88 11.4834C21.87 11.5034 21.85 11.5234 21.83 11.5334C21.4 11.8434 20.96 12.1334 20.5 12.3834Z" fill="white"/>
</g>
</g>
</svg>
