<svg width="44" height="45" viewBox="0 0 44 45" fill="none" xmlns="http://www.w3.org/2000/svg">
<g id="vuesax/bold/frame">
<g id="frame">
<path id="Vector" d="M22.0005 4.50049C17.1971 4.50049 13.2921 8.40549 13.2921 13.2088C13.2921 17.9205 16.9771 21.7338 21.7805 21.8988C21.9271 21.8805 22.0738 21.8805 22.1838 21.8988C22.2205 21.8988 22.2388 21.8988 22.2755 21.8988C22.2938 21.8988 22.2938 21.8988 22.3121 21.8988C27.0055 21.7338 30.6905 17.9205 30.7088 13.2088C30.7088 8.40549 26.8038 4.50049 22.0005 4.50049Z" fill="#01575C"/>
<path id="Vector_2" d="M31.3139 26.7753C26.1989 23.3653 17.8573 23.3653 12.7056 26.7753C10.3773 28.3336 9.09393 30.4419 9.09393 32.6969C9.09393 34.9519 10.3773 37.0419 12.6873 38.5819C15.2539 40.3053 18.6273 41.1669 22.0006 41.1669C25.3739 41.1669 28.7473 40.3053 31.3139 38.5819C33.6239 37.0236 34.9073 34.9336 34.9073 32.6603C34.8889 30.4053 33.6239 28.3153 31.3139 26.7753Z" fill="#01575C"/>
</g>
</g>
</svg>
