<svg width="46" height="46" viewBox="0 0 46 46" fill="none" xmlns="http://www.w3.org/2000/svg">
<g id="vuesax/bulk/send-2">
<g id="send-2">
<path id="Vector" opacity="0.4" d="M13.8299 12.0086L30.7424 6.3649C38.3362 3.83365 42.4612 7.9774 39.9487 15.5711L34.3049 32.4836C30.5174 43.8649 24.2924 43.8649 20.5049 32.4836L18.8362 27.4587L13.8112 25.7899C2.44866 22.0212 2.44866 15.8149 13.8299 12.0086Z" fill="white"/>
<path id="Vector_2" d="M23.2243 22.6398L30.3681 15.4773L23.2243 22.6398Z" fill="white"/>
<path id="Vector_3" d="M23.2246 24.046C22.8684 24.046 22.5121 23.9147 22.2309 23.6335C21.6871 23.0897 21.6871 22.1897 22.2309 21.646L29.3559 14.4835C29.8996 13.9397 30.7996 13.9397 31.3434 14.4835C31.8871 15.0272 31.8871 15.9272 31.3434 16.471L24.2184 23.6335C23.9371 23.896 23.5809 24.046 23.2246 24.046Z" fill="white"/>
</g>
</g>
</svg>
