<svg width="24" height="25" viewBox="0 0 24 25" fill="none" xmlns="http://www.w3.org/2000/svg">
<g id="vuesax/bulk/teacher">
<g id="teacher">
<path id="Vector" opacity="0.4" d="M18.38 12.9236V17.8536C18.38 19.1236 17.39 20.4836 16.2 20.8836L13.01 21.9436C12.45 22.1336 11.54 22.1336 10.99 21.9436L7.8 20.8836C6.6 20.4836 5.62 19.1236 5.62 17.8536L5.63 12.9236L10.05 15.8036C11.13 16.5136 12.91 16.5136 13.99 15.8036L18.38 12.9236Z" fill="white"/>
<path id="Vector_2" d="M19.98 6.54355L13.99 2.61355C12.91 1.90355 11.13 1.90355 10.05 2.61355L4.02999 6.54355C2.09999 7.79355 2.09999 10.6236 4.02999 11.8836L5.62999 12.9236L10.05 15.8036C11.13 16.5136 12.91 16.5136 13.99 15.8036L18.38 12.9236L19.75 12.0236V15.0836C19.75 15.4936 20.09 15.8336 20.5 15.8336C20.91 15.8336 21.25 15.4936 21.25 15.0836V10.1636C21.65 8.87355 21.24 7.37355 19.98 6.54355Z" fill="white"/>
</g>
</g>
</svg>
