<svg width="280" height="234" viewBox="0 0 280 234" fill="none" xmlns="http://www.w3.org/2000/svg">
<path d="M206.049 65.4843C207.16 61.3224 213.066 61.3224 214.177 65.4843L221.242 91.946C229.468 122.758 253.533 146.823 284.345 155.049L310.807 162.114C314.968 163.225 314.968 169.131 310.806 170.242L284.345 177.307C253.533 185.532 229.468 209.598 221.242 240.41L214.177 266.871C213.066 271.033 207.16 271.033 206.049 266.871L198.984 240.41C190.758 209.598 166.693 185.532 135.881 177.307L109.419 170.242C105.257 169.131 105.257 163.225 109.419 162.114L135.881 155.049C166.693 146.823 190.758 122.757 198.984 91.946L206.049 65.4843Z" fill="#AE77B5" stroke="#AE77B5" stroke-width="0.764815"/>
<path d="M135.091 16.7055C136.202 12.5436 142.108 12.5436 143.219 16.7055L150.283 43.1672C158.509 73.9787 182.575 98.0445 213.387 106.27L239.848 113.335C244.01 114.446 244.01 120.352 239.848 121.463L213.387 128.528C182.575 136.754 158.509 160.819 150.283 191.631L143.219 218.093C142.108 222.255 136.202 222.255 135.091 218.093L128.026 191.631C119.8 160.819 95.7343 136.754 64.9228 128.528L38.4611 121.463C34.2992 120.352 34.2992 114.446 38.4611 113.335L64.9228 106.27C95.7343 98.0445 119.8 73.9787 128.026 43.1672L135.091 16.7055Z" stroke="#AE77B5" stroke-width="0.764815"/>
<path d="M231.321 15.0722C231.46 13.6967 233.464 13.6966 233.603 15.0722L234.282 21.7757C234.922 28.1014 239.925 33.1036 246.25 33.7439L252.954 34.4225C254.329 34.5617 254.329 36.566 252.954 36.7053L246.25 37.3839C239.925 38.0242 234.922 43.0264 234.282 49.3521L233.603 56.0555C233.464 57.4311 231.46 57.4311 231.321 56.0555L230.642 49.3521C230.002 43.0264 225 38.0242 218.674 37.3839L211.97 36.7053C210.595 36.566 210.595 34.5617 211.97 34.4225L218.674 33.7439C225 33.1036 230.002 28.1014 230.642 21.7757L231.321 15.0722Z" fill="#AE77B5" stroke="#AE77B5" stroke-width="0.764815"/>
<path d="M21.3414 70.5571C21.4386 69.597 22.8375 69.597 22.9347 70.5571C23.4341 75.4906 27.3354 79.3919 32.2689 79.8914C33.229 79.9885 33.229 81.3874 32.2689 81.4846C27.3354 81.984 23.4341 85.8853 22.9347 90.8189C22.8375 91.7789 21.4386 91.7789 21.3414 90.8189C20.842 85.8853 16.9407 81.984 12.0072 81.4846C11.0471 81.3874 11.0471 79.9885 12.0072 79.8914C16.9407 79.3919 20.842 75.4906 21.3414 70.5571Z" fill="#AE77B5" stroke="#AE77B5" stroke-width="0.764815"/>
</svg>
