<svg width="240" height="234" viewBox="0 0 240 234" fill="none" xmlns="http://www.w3.org/2000/svg">
<path d="M170.296 0.733295L203.646 55.2988L203.827 55.5947L204.139 55.4435L261.695 27.5703L260.25 91.5039L260.242 91.8506L260.586 91.8921L324.075 99.5607L288.294 152.564L288.1 152.851L288.367 153.072L337.631 193.848L278.875 219.093L278.556 219.23L278.661 219.56L298.06 280.497L234.983 269.968L234.641 269.911L234.551 270.246L217.925 331.997L170.553 289.037L170.296 288.804L170.039 289.037L122.668 331.997L106.042 270.246L105.952 269.911L105.61 269.968L42.5325 280.497L61.931 219.56L62.0362 219.23L61.7176 219.093L2.96136 193.848L52.2253 153.072L52.4925 152.851L52.2984 152.564L16.5178 99.5607L80.0063 91.8921L80.3506 91.8506L80.3427 91.5039L78.8979 27.5703L136.454 55.4435L136.766 55.5947L136.947 55.2988L170.296 0.733295Z" stroke="#DD9292" stroke-width="0.764815"/>
<path d="M170.296 60.3888L191.814 95.5951L191.994 95.891L192.307 95.7398L229.442 77.7557L228.51 119.006L228.502 119.353L228.846 119.395L269.81 124.342L246.724 158.541L246.53 158.828L246.797 159.049L278.583 185.358L240.672 201.646L240.354 201.783L240.459 202.114L252.975 241.431L212.277 234.637L211.935 234.58L211.845 234.915L201.118 274.757L170.553 247.039L170.296 246.806L170.039 247.039L139.474 274.757L128.747 234.915L128.657 234.58L128.315 234.637L87.617 241.431L100.133 202.114L100.238 201.783L99.9197 201.646L62.0095 185.358L93.7952 159.049L94.0624 158.828L93.8683 158.541L70.7823 124.342L111.746 119.395L112.09 119.353L112.082 119.006L111.15 77.7557L148.286 95.7398L148.598 95.891L148.779 95.5951L170.296 60.3888Z" fill="#DD9292" stroke="#A14040" stroke-width="0.764815"/>
<path d="M170.296 111.631L181.65 130.209L181.831 130.505L182.143 130.353L201.738 120.864L201.246 142.63L201.239 142.977L201.583 143.019L223.198 145.629L211.016 163.675L210.822 163.962L211.089 164.183L227.862 178.066L207.858 186.66L207.539 186.797L207.644 187.128L214.248 207.874L192.773 204.289L192.431 204.232L192.341 204.567L186.681 225.591L170.553 210.965L170.296 210.732L170.039 210.965L153.911 225.591L148.251 204.567L148.161 204.232L147.819 204.289L126.344 207.874L132.948 187.128L133.053 186.797L132.734 186.66L112.731 178.066L129.503 164.183L129.77 163.962L129.576 163.675L117.394 145.629L139.009 143.019L139.353 142.977L139.346 142.63L138.854 120.864L158.449 130.353L158.761 130.505L158.942 130.209L170.296 111.631Z" fill="#DD9292" stroke="#A14040" stroke-width="0.764815"/>
</svg>
