<svg width="226" height="150" viewBox="0 0 226 150" fill="none" xmlns="http://www.w3.org/2000/svg">
<path fill-rule="evenodd" clip-rule="evenodd" d="M134.297 89.71C124.239 97.1234 109.661 101.079 97.1095 101.079C79.5102 101.079 63.6664 94.5693 51.6798 83.7432C50.7382 82.8916 51.582 81.7315 52.712 82.3945C65.6478 89.921 81.6423 94.4488 98.1643 94.4488C109.307 94.4488 121.565 92.1434 132.835 87.3594C134.538 86.6361 135.962 88.4744 134.297 89.71Z" fill="#01575C"/>
<path fill-rule="evenodd" clip-rule="evenodd" d="M138.478 84.9258C137.197 83.2833 129.979 84.1498 126.739 84.534C125.753 84.6546 125.602 83.7957 126.491 83.1779C132.239 79.1323 141.672 80.3 142.772 81.6561C143.872 83.0197 142.485 92.4748 137.084 96.9876C136.255 97.6808 135.464 97.3116 135.833 96.3924C137.046 93.3639 139.766 86.5758 138.478 84.9258Z" fill="#01575C"/>
<path fill-rule="evenodd" clip-rule="evenodd" d="M126.966 54.617V50.6843C126.966 50.0891 127.418 49.6898 127.961 49.6898H145.568C146.133 49.6898 146.585 50.0966 146.585 50.6843V54.0519C146.577 54.617 146.103 55.3553 145.259 56.5231L136.135 69.5492C139.525 69.4665 143.104 69.9712 146.178 71.704C146.871 72.0957 147.059 72.6684 147.112 73.2333V77.4298C147.112 78.0023 146.479 78.6728 145.816 78.3263C140.399 75.4861 133.205 75.1772 127.215 78.3564C126.605 78.688 125.964 78.025 125.964 77.4524V73.467C125.964 72.8266 125.972 71.7341 126.612 70.7623L137.182 55.6041H127.983C127.418 55.6041 126.966 55.2048 126.966 54.617ZM62.7397 79.155H57.383C56.8707 79.1174 56.4639 78.7332 56.4262 78.2434V50.7522C56.4262 50.2022 56.8857 49.7651 57.4583 49.7651H62.4533C62.9732 49.7876 63.3875 50.1871 63.4253 50.6842V54.2781H63.5232C64.8265 50.805 67.275 49.1853 70.5749 49.1853C73.9274 49.1853 76.022 50.805 77.5288 54.2781C78.8246 50.805 81.7704 49.1853 84.9271 49.1853C87.1721 49.1853 89.6282 50.112 91.1274 52.1913C92.8225 54.5042 92.476 57.8643 92.476 60.81L92.4684 78.1607C92.4684 78.7107 92.0089 79.1552 91.4364 79.1552H86.0873C85.5525 79.1176 85.1229 78.6882 85.1229 78.1607V63.59C85.1229 62.4297 85.2285 59.5365 84.9723 58.4368C84.573 56.5909 83.3751 56.071 81.823 56.071C80.5272 56.071 79.1711 56.9374 78.6211 58.3238C78.0712 59.7101 78.124 62.0304 78.124 63.59V78.1605C78.124 78.7105 77.6643 79.155 77.0918 79.155H71.7426C71.2002 79.1174 70.7783 78.688 70.7783 78.1605L70.7708 63.59C70.7708 60.5236 71.2755 56.011 67.4709 56.011C63.6212 56.011 63.7718 60.4106 63.7718 63.59V78.1605C63.7718 78.7105 63.3122 79.155 62.7397 79.155ZM161.743 49.1852C169.691 49.1852 173.993 56.0108 173.993 64.6899C173.993 73.0751 169.239 79.7277 161.743 79.7277C153.938 79.7277 149.689 72.9019 149.689 64.396C149.689 55.8375 153.991 49.1852 161.743 49.1852ZM161.788 54.7979C157.84 54.7979 157.592 60.1771 157.592 63.5296C157.592 66.8899 157.539 74.062 161.743 74.062C165.894 74.062 166.09 68.2761 166.09 64.7501C166.09 62.4297 165.992 59.6572 165.291 57.4574C164.689 55.5437 163.491 54.7979 161.788 54.7979M184.3 79.155H178.966C178.431 79.1174 178.001 78.688 178.001 78.1605L177.994 50.6617C178.039 50.157 178.484 49.7651 179.026 49.7651H183.991C184.458 49.7876 184.842 50.1044 184.947 50.5336V54.7376H185.045C186.545 50.9782 188.647 49.1852 192.346 49.1852C194.749 49.1852 197.092 50.0514 198.599 52.4246C200 54.6244 200 58.3238 200 60.9833V78.2886C199.94 78.7708 199.496 79.155 198.968 79.155H193.596C193.107 79.1174 192.7 78.7557 192.647 78.2886V63.3563C192.647 60.3503 192.994 55.9504 189.295 55.9504C187.991 55.9504 186.793 56.8244 186.198 58.1504C185.445 59.8306 185.347 61.503 185.347 63.3565V78.1605C185.339 78.7105 184.872 79.155 184.3 79.155ZM112.931 66.0235C112.931 68.1103 112.983 69.8507 111.929 71.7038C111.077 73.2108 109.721 74.1373 108.222 74.1373C106.165 74.1373 104.96 72.5704 104.96 70.2574C104.96 65.6918 109.051 64.8632 112.931 64.8632V66.0235ZM118.332 79.0797C117.978 79.3961 117.466 79.4188 117.067 79.2078C115.289 77.7311 114.965 77.0455 113.993 75.6367C111.055 78.6352 108.968 79.5318 105.163 79.5318C100.65 79.5318 97.147 76.7516 97.147 71.1843C97.147 66.8371 99.4976 63.8763 102.858 62.4297C105.766 61.1489 109.827 60.9229 112.931 60.5688V59.8758C112.931 58.6024 113.029 57.0956 112.275 55.9957C111.627 55.0088 110.377 54.6019 109.269 54.6019C107.227 54.6019 105.412 55.6491 104.967 57.8189C104.877 58.3011 104.523 58.7757 104.033 58.7984L98.8422 58.2409C98.4053 58.1429 97.9155 57.7888 98.0436 57.1183C99.234 50.82 104.93 48.9214 110.023 48.9214C112.629 48.9214 116.035 49.6146 118.092 51.5885C120.698 54.022 120.45 57.2689 120.45 60.8024V69.1499C120.45 71.6588 121.489 72.7586 122.469 74.1148C122.808 74.597 122.883 75.1772 122.446 75.5387C121.354 76.4503 119.41 78.1454 118.34 79.0948L118.333 79.0797M42.7069 66.0235C42.7069 68.1103 42.7597 69.8507 41.7048 71.7038C40.8536 73.2108 39.505 74.1373 37.9982 74.1373C35.9415 74.1373 34.7435 72.5704 34.7435 70.2574C34.7435 65.6918 38.8345 64.8632 42.7069 64.8632V66.0235ZM48.1086 79.0797C47.7547 79.3961 47.2424 79.4188 46.8431 79.2078C45.0651 77.7311 44.7485 77.0455 43.7693 75.6367C40.8309 78.6352 38.7518 79.5318 34.9394 79.5318C30.4342 79.5318 26.9233 76.7516 26.9233 71.1843C26.9233 66.8371 29.2815 63.8763 32.634 62.4297C35.5422 61.1489 39.603 60.9229 42.7069 60.5688V59.8758C42.7069 58.6024 42.8049 57.0956 42.0589 55.9957C41.4035 55.0088 40.153 54.6019 39.0529 54.6019C37.0113 54.6019 35.1881 55.6491 34.7435 57.8189C34.6531 58.3011 34.299 58.7757 33.8168 58.7984L28.6185 58.2409C28.1814 58.1429 27.6994 57.7888 27.8199 57.1183C29.0177 50.82 34.7059 48.9214 39.7989 48.9214C42.4054 48.9214 45.8109 49.6146 47.8677 51.5885C50.4743 54.022 50.2257 57.2689 50.2257 60.8024V69.1499C50.2257 71.6588 51.2654 72.7586 52.2448 74.1148C52.5915 74.597 52.6668 75.1772 52.2298 75.5387C51.1373 76.4503 49.1937 78.1454 48.1239 79.0948L48.1088 79.0797" fill="#01575C"/>
</svg>
