<svg width="226" height="150" viewBox="0 0 226 150" fill="none" xmlns="http://www.w3.org/2000/svg">
<path d="M94.4977 65.9984V65.2996L94.1983 65.1001H82.2208L82.0211 65.2996V65.9984L82.2208 66.1979H87.3111L87.5107 66.3974V80.9701L87.7103 81.1697H88.6086L88.8082 80.9701V66.4972L89.0079 66.2977H94.1982L94.4976 65.9984H94.4977ZM97.1941 69.4931C94.0001 69.4931 92.1002 71.7864 92.1002 75.08V75.5824C92.1002 78.7766 93.6983 81.5684 97.3915 81.5684C100.585 81.5684 101.783 79.4727 101.983 78.0754L101.786 77.8782H100.885L100.687 78.0754C100.188 79.4727 99.2868 80.3712 97.4901 80.3712C94.4957 80.3712 93.5981 77.5761 93.5981 76.1787L93.7999 75.9816H102.082L102.284 75.7797V75.0801C102.284 71.7864 100.488 69.4931 97.1943 69.4931L97.1941 69.4931ZM97.1941 70.6903C98.5915 70.6903 99.5123 71.2642 100.086 72.0378C100.66 72.8113 100.884 73.784 100.884 74.5825L100.687 74.7843H93.7011L93.4992 74.5825C93.4992 73.784 93.7235 72.8114 94.2974 72.0378C94.8713 71.2642 95.7968 70.6903 97.1942 70.6903H97.1941ZM104.579 75.4806C104.579 72.2867 106.176 70.5898 108.471 70.5898C110.767 70.5898 111.665 71.9872 111.965 73.3845L112.164 73.584H113.163L113.362 73.3845C113.163 71.0889 111.266 69.492 108.471 69.492C105.477 69.492 103.181 71.3884 103.181 75.4806C103.181 79.6729 105.477 81.4695 108.471 81.4695C111.266 81.4695 113.063 79.8724 113.362 77.5768L113.163 77.3773H112.264L112.065 77.5768C111.865 78.9741 110.867 80.3715 108.571 80.3715C106.275 80.3715 104.579 78.7746 104.579 75.4806H104.579ZM124.541 81.0703V74.0833C124.541 71.0889 122.944 69.492 120.349 69.492C118.752 69.492 117.355 70.1906 116.656 71.3884H116.457V65.3995L116.157 65.1002H115.259L115.059 65.2997V81.0703L115.259 81.2698H116.157L116.357 81.0703V74.7821C116.357 72.1869 117.554 70.5898 120.05 70.5898C121.946 70.5898 123.044 71.7877 123.044 74.0833V81.0703L123.244 81.2698H124.142L124.541 81.0703H124.541ZM136.319 81.0703V74.0833C136.319 71.0889 134.722 69.492 132.127 69.492C130.53 69.492 129.133 70.1906 128.434 71.3884H128.235L128.035 69.991L127.835 69.7915H127.137L126.937 69.991V81.0703L127.137 81.2698H128.035L128.235 81.0703V74.7821C128.235 72.1869 129.432 70.5898 131.928 70.5898C133.824 70.5898 134.922 71.7877 134.922 74.0833V81.0703L135.122 81.2698H136.12L136.319 81.0703H136.319ZM143.008 69.5918C140.013 69.5918 137.716 71.69 137.716 75.5826C137.716 79.4753 140.013 81.5686 143.008 81.5686C146.002 81.5686 148.299 79.4752 148.299 75.5826C148.299 71.6901 146.002 69.5918 143.008 69.5918ZM143.008 70.6904C144.155 70.6904 145.129 71.1659 145.815 72.0144C146.501 72.8628 146.9 74.0854 146.9 75.5826C146.9 77.0798 146.501 78.3023 145.815 79.1508C145.129 79.9992 144.156 80.4701 143.008 80.4701C141.86 80.4701 140.886 79.9992 140.2 79.1508C139.514 78.3024 139.115 77.0799 139.115 75.5826C139.115 74.0355 139.514 72.8129 140.2 71.9769C140.886 71.1409 141.86 70.6904 143.008 70.6904V70.6904ZM151.391 81.0703V65.2998L151.091 65.1003H150.193L149.994 65.2998V81.0703L150.193 81.2698H151.091L151.391 81.0703ZM158.28 69.5918C155.286 69.5918 152.989 71.6901 152.989 75.5826C152.989 79.4754 155.286 81.5686 158.28 81.5686C161.275 81.5686 163.567 79.4753 163.567 75.5826C163.567 71.6901 161.275 69.5918 158.28 69.5918ZM158.28 70.6905C159.428 70.6905 160.397 71.166 161.083 72.0144C161.769 72.8629 162.172 74.0855 162.172 75.5827C162.172 77.0799 161.769 78.3023 161.083 79.1509C160.397 79.9993 159.428 80.4702 158.28 80.4702C157.132 80.4702 156.159 79.9993 155.473 79.1509C154.783 78.3023 154.379 77.0798 154.379 75.5824C154.379 74.0353 154.782 72.8127 155.468 71.9767C156.154 71.1408 157.128 70.6903 158.276 70.6903L158.28 70.6905ZM169.656 69.4932C166.462 69.4932 164.764 72.0858 164.764 75.4792C164.764 78.9727 166.362 81.47 169.656 81.47C171.752 81.47 172.852 80.5716 173.351 79.5733V79.6719C173.351 82.6661 172.653 84.9632 169.858 84.9632C167.762 84.9632 167.062 84.067 166.863 82.8692L166.661 82.6673H165.764L165.562 82.8692C165.762 84.7656 167.162 86.0617 169.957 86.0617C172.951 86.0617 174.849 84.1648 174.849 79.5733V69.991L174.647 69.7938H173.947L173.75 69.991L173.548 71.3901H173.351C172.852 70.4918 171.752 69.4933 169.656 69.4933L169.656 69.4932ZM169.656 70.5918C170.804 70.5918 171.729 70.9875 172.365 71.7984C173.002 72.6094 173.351 73.8324 173.351 75.4792C173.351 77.1262 173.002 78.3491 172.365 79.1599C171.729 79.9709 170.804 80.3712 169.656 80.3712C168.508 80.3712 167.583 79.9709 166.947 79.1599C166.311 78.349 165.966 77.126 165.966 75.4792C165.966 73.8822 166.311 72.6593 166.947 71.8359C167.583 71.0125 168.508 70.5918 169.656 70.5918V70.5918ZM178.44 67.6955V66.2979L178.241 66.0984H177.342L177.043 66.2979V67.6955L177.242 67.895H178.141L178.44 67.6955ZM178.44 81.0703V69.9911L178.241 69.7916H177.342L177.043 69.9911V81.0703L177.242 81.2699H178.141L178.44 81.0703ZM185.126 69.4933C181.932 69.4933 180.037 71.7866 180.037 75.0803V75.5826C180.037 78.7768 181.635 81.5686 185.328 81.5686C188.522 81.5686 189.72 79.4729 189.92 78.0756L189.718 77.8784H188.821L188.619 78.0756C188.12 79.473 187.223 80.3715 185.427 80.3715C182.432 80.3715 181.535 77.5763 181.535 76.179L181.737 75.9818H190.019L190.22 75.7799V75.0803C190.22 71.8864 188.32 69.4933 185.127 69.4933L185.126 69.4933ZM185.126 70.6905C186.524 70.6905 187.449 71.2644 188.023 72.038C188.597 72.8116 188.821 73.7842 188.821 74.5827L188.619 74.7845H181.633L181.436 74.5827C181.436 73.7842 181.66 72.8116 182.234 72.038C182.808 71.2644 183.729 70.6905 185.126 70.6905H185.126ZM200 78.2755C200 76.1797 198.802 75.2813 196.506 74.7823C194.211 74.283 192.813 74.0835 192.813 72.4864C192.813 71.2888 193.712 70.59 195.409 70.59C197.505 70.59 198.203 71.4884 198.203 72.6862L198.403 72.8857H199.301L199.501 72.6862C199.501 70.3905 197.604 69.4922 195.309 69.4922C192.713 69.4922 191.416 70.8896 191.416 72.4864C191.416 74.383 192.813 75.2813 195.109 75.6806C197.404 76.1797 198.602 76.3792 198.602 78.2755C198.602 79.4734 197.904 80.3717 195.608 80.3717C193.512 80.3717 192.613 79.1739 192.613 77.7765L192.414 77.577H191.515L191.316 77.7765C191.316 79.8726 192.913 81.4697 195.707 81.4697C198.602 81.5707 199.999 80.1722 199.999 78.2755H200Z" fill="#01575C"/>
<path d="M81.9215 77.865V81.1696H71.5358V64.8825H75.3124V77.8643H81.9215V77.865ZM50.5252 63.9382L41.3228 71.023C40.3786 67.4822 37.3106 64.882 33.534 64.882H26.9235V81.1688H33.534C37.3106 81.1688 40.6147 78.5732 41.3228 75.0326L50.5249 82.1126L59.7318 75.0326V81.1688H70.117V77.8636H63.2765V64.882H59.4969V71.0182L50.7643 78.103L48.877 76.4504L53.1259 73.1451L57.6115 69.605L55.0154 67.4829L46.2815 74.3235L44.3943 72.6708L53.1259 66.0603L50.5305 63.9382H50.526H50.5252ZM30.4636 68.1872H33.2946C33.8847 68.1872 34.4631 68.3194 34.9941 68.5628C35.5252 68.8062 36.013 69.1625 36.4261 69.6051C36.8392 70.0477 37.176 70.5757 37.412 71.1732C37.6481 71.7707 37.7782 72.4369 37.7782 73.1451C37.7782 73.7942 37.6625 74.4273 37.4449 75.0137C37.2271 75.6002 36.9089 76.1384 36.5106 76.5959C36.1123 77.0531 35.6348 77.4278 35.0927 77.6898C34.5507 77.9516 33.9436 78.0983 33.2946 78.0983H30.4636V68.1873V68.1872Z" fill="#01575C"/>
</svg>
