<svg width="226" height="150" viewBox="0 0 226 150" fill="none" xmlns="http://www.w3.org/2000/svg">
<path d="M100.99 76.4955C100.99 84.6923 94.5777 90.7324 86.7083 90.7324C78.8388 90.7324 72.4264 84.6923 72.4264 76.4955C72.4264 68.2409 78.8388 62.2585 86.7083 62.2585C94.5777 62.2585 100.99 68.2409 100.99 76.4955ZM94.7382 76.4955C94.7382 71.3733 91.0217 67.8686 86.7083 67.8686C82.3948 67.8686 78.6783 71.3733 78.6783 76.4955C78.6783 81.5663 82.3948 85.1224 86.7083 85.1224C91.0217 85.1224 94.7382 81.5599 94.7382 76.4955Z" fill="#01575C"/>
<path d="M131.8 76.4955C131.8 84.6923 125.387 90.7324 117.518 90.7324C109.648 90.7324 103.236 84.6923 103.236 76.4955C103.236 68.2473 109.648 62.2585 117.518 62.2585C125.387 62.2585 131.8 68.2409 131.8 76.4955ZM125.548 76.4955C125.548 71.3733 121.831 67.8686 117.518 67.8686C113.204 67.8686 109.488 71.3733 109.488 76.4955C109.488 81.5663 113.204 85.1224 117.518 85.1224C121.831 85.1224 125.548 81.5599 125.548 76.4955Z" fill="#01575C"/>
<path d="M161.327 63.1188V88.6785C161.327 99.1925 155.126 103.487 147.796 103.487C140.896 103.487 136.743 98.8716 135.176 95.0973L140.62 92.8315C141.589 95.1487 143.964 97.8831 147.789 97.8831C152.482 97.8831 155.389 94.9882 155.389 89.5386V87.491H155.171C153.772 89.2177 151.076 90.7261 147.674 90.7261C140.555 90.7261 134.034 84.5255 134.034 76.5469C134.034 68.5106 140.555 62.2587 147.674 62.2587C151.069 62.2587 153.765 63.7671 155.171 65.4424H155.389V63.1252H161.327V63.1188ZM155.832 76.5469C155.832 71.5339 152.488 67.8687 148.232 67.8687C143.919 67.8687 140.305 71.5339 140.305 76.5469C140.305 81.5087 143.919 85.1225 148.232 85.1225C152.488 85.1225 155.832 81.5087 155.832 76.5469Z" fill="#01575C"/>
<path d="M171.115 48.1372V89.8595H165.017V48.1372H171.115Z" fill="#01575C"/>
<path d="M194.878 81.1813L199.73 84.4164C198.164 86.7336 194.39 90.7261 187.868 90.7261C179.781 90.7261 173.741 84.4741 173.741 76.4891C173.741 68.0227 179.832 62.2522 187.169 62.2522C194.557 62.2522 198.171 68.1318 199.352 71.3091L200 72.9267L180.968 80.809C182.425 83.6654 184.691 85.1224 187.868 85.1224C191.052 85.1224 193.26 83.5562 194.878 81.1813ZM179.941 76.0591L192.663 70.7764C191.964 68.9984 189.858 67.7595 187.381 67.7595C184.203 67.7595 179.781 70.5646 179.941 76.0591Z" fill="#01575C"/>
<path d="M49.3444 72.7918V66.7517H69.6984C69.8974 67.8044 70.0001 69.0496 70.0001 70.3976C70.0001 74.9293 68.7613 80.5329 64.7688 84.5254C60.8854 88.5693 55.9237 90.726 49.3508 90.726C37.1679 90.726 26.9235 80.8025 26.9235 68.6196C26.9235 56.4367 37.1679 46.5132 49.3508 46.5132C56.0906 46.5132 60.8918 49.1577 64.4992 52.6046L60.2371 56.8667C57.6503 54.4404 54.1457 52.5533 49.3444 52.5533C40.4479 52.5533 33.4899 59.7231 33.4899 68.6196C33.4899 77.5161 40.4479 84.6859 49.3444 84.6859C55.1149 84.6859 58.4013 82.3687 60.5067 80.2633C62.2141 78.5559 63.3374 76.1168 63.7803 72.7854L49.3444 72.7918Z" fill="#01575C"/>
</svg>
