<svg width="80" height="82" viewBox="0 0 80 82" fill="none" xmlns="http://www.w3.org/2000/svg">
<g id="Logo">
<path id="Vector" fill-rule="evenodd" clip-rule="evenodd" d="M27.4292 1.03223C22.9164 1.03223 18.5886 2.8249 15.3976 6.01588L0 21.4134V28.4614C0 33.4408 2.13888 37.9206 5.54802 41.0322C2.13888 44.1438 0 48.6236 0 53.603V60.651L15.3976 76.0486C18.5886 79.2396 22.9164 81.0322 27.4292 81.0322C32.4086 81.0322 36.8884 78.8934 40 75.4842C43.1116 78.8934 47.5914 81.0322 52.5708 81.0322C57.0836 81.0322 61.4114 79.2396 64.6024 76.0486L80 60.651V53.603C80 48.6236 77.8612 44.1438 74.452 41.0322C77.8612 37.9206 80 33.4408 80 28.4614V21.4134L64.6024 6.01588C61.4114 2.8249 57.0836 1.03223 52.5708 1.03223C47.5914 1.03223 43.1116 3.1711 40 6.58024C36.8884 3.1711 32.4086 1.03223 27.4292 1.03223ZM51.5176 41.0322C51.3258 40.8572 51.1376 40.6774 50.9532 40.493L40 29.5398L29.0468 40.493C28.8624 40.6774 28.6742 40.8572 28.4824 41.0322C28.6742 41.2072 28.8624 41.387 29.0468 41.5714L40 52.5246L50.9532 41.5714C51.1376 41.387 51.3258 41.2072 51.5176 41.0322ZM44.4444 60.651V64.017C44.4444 68.505 48.0828 72.1434 52.5708 72.1434C54.726 72.1434 56.793 71.2872 58.317 69.7632L71.1112 56.969V53.603C71.1112 49.115 67.4728 45.4766 62.9848 45.4766C60.8296 45.4766 58.7626 46.3328 57.2386 47.8568L44.4444 60.651ZM35.5556 60.651L22.7614 47.8568C21.2374 46.3328 19.1705 45.4766 17.0152 45.4766C12.5272 45.4766 8.88888 49.115 8.88888 53.603V56.969L21.683 69.7632C23.207 71.2872 25.274 72.1434 27.4292 72.1434C31.9172 72.1434 35.5556 68.505 35.5556 64.017V60.651ZM35.5556 18.0475V21.4134L22.7614 34.2076C21.2374 35.7316 19.1705 36.5878 17.0152 36.5878C12.5272 36.5878 8.88888 32.9494 8.88888 28.4614V25.0954L21.683 12.3013C23.207 10.7773 25.274 9.92112 27.4292 9.92112C31.9172 9.92112 35.5556 13.5594 35.5556 18.0475ZM57.2386 34.2076L44.4444 21.4134V18.0475C44.4444 13.5594 48.0828 9.92112 52.5708 9.92112C54.726 9.92112 56.793 10.7773 58.317 12.3013L71.1112 25.0954V28.4614C71.1112 32.9494 67.4728 36.5878 62.9848 36.5878C60.8296 36.5878 58.7626 35.7316 57.2386 34.2076Z" fill="#156569"/>
</g>
</svg>
