<svg width="129" height="42" viewBox="0 0 129 42" fill="none" xmlns="http://www.w3.org/2000/svg">
<g clip-path="url(#clip0_1_1307)">
<path fill-rule="evenodd" clip-rule="evenodd" d="M13.7146 1.01611C11.4582 1.01611 9.2943 1.91245 7.69881 3.50794L0 11.2067V14.7307C0 17.2204 1.06944 19.4603 2.77401 21.0161C1.06944 22.5719 0 24.8118 0 27.3015V30.8255L7.69881 38.5243C9.2943 40.1198 11.4582 41.0161 13.7146 41.0161C16.2043 41.0161 18.4442 39.9467 20 38.2421C21.5558 39.9467 23.7957 41.0161 26.2854 41.0161C28.5418 41.0161 30.7057 40.1198 32.3012 38.5243L40 30.8255V27.3015C40 24.8118 38.9306 22.5719 37.226 21.0161C38.9306 19.4603 40 17.2204 40 14.7307V11.2067L32.3012 3.50794C30.7057 1.91245 28.5418 1.01611 26.2854 1.01611C23.7957 1.01611 21.5558 2.08555 20 3.79012C18.4442 2.08555 16.2043 1.01611 13.7146 1.01611ZM25.7588 21.0161C25.6629 20.9286 25.5688 20.8387 25.4766 20.7465L20 15.2699L14.5234 20.7465C14.4312 20.8387 14.3371 20.9286 14.2412 21.0161C14.3371 21.1036 14.4312 21.1935 14.5234 21.2857L20 26.7623L25.4766 21.2857C25.5688 21.1935 25.6629 21.1036 25.7588 21.0161ZM22.2222 30.8255V32.5085C22.2222 34.7525 24.0414 36.5717 26.2854 36.5717C27.363 36.5717 28.3965 36.1436 29.1585 35.3816L35.5556 28.9845V27.3015C35.5556 25.0575 33.7364 23.2383 31.4924 23.2383C30.4148 23.2383 29.3813 23.6664 28.6193 24.4284L22.2222 30.8255ZM17.7778 30.8255L11.3807 24.4284C10.6187 23.6664 9.58524 23.2383 8.50762 23.2383C6.26359 23.2383 4.44444 25.0575 4.44444 27.3015V28.9845L10.8415 35.3816C11.6035 36.1436 12.637 36.5717 13.7146 36.5717C15.9586 36.5717 17.7778 34.7525 17.7778 32.5085V30.8255ZM17.7778 9.52373V11.2067L11.3807 17.6038C10.6187 18.3658 9.58524 18.7939 8.50762 18.7939C6.26359 18.7939 4.44444 16.9747 4.44444 14.7307V13.0477L10.8415 6.65063C11.6035 5.88864 12.637 5.46056 13.7146 5.46056C15.9586 5.46056 17.7778 7.2797 17.7778 9.52373ZM28.6193 17.6038L22.2222 11.2067V9.52373C22.2222 7.2797 24.0414 5.46056 26.2854 5.46056C27.363 5.46056 28.3965 5.88864 29.1585 6.65063L35.5556 13.0477V14.7307C35.5556 16.9747 33.7364 18.7939 31.4924 18.7939C30.4148 18.7939 29.3813 18.3658 28.6193 17.6038Z" fill="#01575C"/>
</g>
<path d="M52.454 17.68C51.746 17.68 51.098 17.596 50.51 17.428C49.922 17.248 49.4 16.99 48.944 16.654C48.488 16.318 48.098 15.91 47.774 15.43L48.098 15.142C48.554 15.85 49.148 16.384 49.88 16.744C50.612 17.104 51.47 17.284 52.454 17.284C53.126 17.284 53.732 17.164 54.272 16.924C54.824 16.672 55.262 16.33 55.586 15.898C55.91 15.466 56.072 14.968 56.072 14.404C56.072 14.056 56 13.75 55.856 13.486C55.724 13.222 55.532 12.988 55.28 12.784C55.028 12.58 54.722 12.4 54.362 12.244C54.014 12.076 53.618 11.92 53.174 11.776C52.73 11.632 52.256 11.488 51.752 11.344C51.188 11.188 50.684 11.014 50.24 10.822C49.796 10.618 49.418 10.39 49.106 10.138C48.806 9.874 48.572 9.574 48.404 9.238C48.248 8.89 48.17 8.488 48.17 8.032C48.17 7.564 48.272 7.126 48.476 6.718C48.692 6.31 48.98 5.962 49.34 5.674C49.712 5.374 50.144 5.14 50.636 4.972C51.14 4.804 51.68 4.72 52.256 4.72C52.904 4.72 53.474 4.792 53.966 4.936C54.458 5.068 54.884 5.272 55.244 5.548C55.604 5.812 55.922 6.13 56.198 6.502L55.892 6.772C55.628 6.424 55.328 6.13 54.992 5.89C54.656 5.638 54.26 5.446 53.804 5.314C53.36 5.182 52.844 5.116 52.256 5.116C51.572 5.116 50.948 5.242 50.384 5.494C49.832 5.746 49.394 6.094 49.07 6.538C48.746 6.97 48.584 7.468 48.584 8.032C48.584 8.44 48.662 8.8 48.818 9.112C48.974 9.412 49.196 9.682 49.484 9.922C49.772 10.15 50.12 10.348 50.528 10.516C50.936 10.684 51.392 10.834 51.896 10.966C52.616 11.146 53.258 11.338 53.822 11.542C54.386 11.746 54.866 11.98 55.262 12.244C55.658 12.508 55.958 12.82 56.162 13.18C56.378 13.528 56.486 13.936 56.486 14.404C56.486 15.028 56.306 15.586 55.946 16.078C55.598 16.57 55.118 16.96 54.506 17.248C53.894 17.536 53.21 17.68 52.454 17.68ZM58.7249 14.278V13.702L64.4309 8.05H65.0069L58.7249 14.278ZM58.4729 17.5V4.18H58.8689V17.5H58.4729ZM65.0609 17.5L60.5069 12.262L60.8129 11.974L65.6189 17.5H65.0609ZM67.3394 17.5V8.05H67.7354V17.5H67.3394ZM67.5374 5.566C67.3694 5.566 67.2434 5.518 67.1594 5.422C67.0754 5.326 67.0334 5.2 67.0334 5.044C67.0334 4.9 67.0754 4.78 67.1594 4.684C67.2434 4.576 67.3694 4.522 67.5374 4.522C67.6934 4.522 67.8134 4.57 67.8974 4.666C67.9934 4.762 68.0414 4.888 68.0414 5.044C68.0414 5.2 67.9994 5.326 67.9154 5.422C67.8314 5.518 67.7054 5.566 67.5374 5.566ZM70.9626 17.5V4.18H71.3586V17.5H70.9626ZM74.6716 17.5V4.18H75.0676V17.5H74.6716ZM83.3486 17.608C82.4486 17.608 81.6446 17.398 80.9366 16.978C80.2406 16.546 79.6946 15.958 79.2986 15.214C78.9026 14.47 78.7046 13.618 78.7046 12.658V4.9H79.1006V12.496C79.1006 13.42 79.2806 14.236 79.6406 14.944C80.0006 15.652 80.4986 16.21 81.1346 16.618C81.7706 17.014 82.5086 17.212 83.3486 17.212C84.2126 17.212 84.9746 17.014 85.6346 16.618C86.2946 16.21 86.8106 15.652 87.1826 14.944C87.5546 14.236 87.7406 13.42 87.7406 12.496V4.9H88.1366V12.658C88.1366 13.618 87.9266 14.47 87.5066 15.214C87.0986 15.958 86.5346 16.546 85.8146 16.978C85.0946 17.398 84.2726 17.608 83.3486 17.608ZM91.3791 21.64V8.05H91.7391L91.7751 11.236L91.6131 11.29C91.7691 10.642 92.0451 10.066 92.4411 9.562C92.8371 9.058 93.3111 8.668 93.8631 8.392C94.4151 8.104 95.0151 7.96 95.6631 7.96C96.5391 7.96 97.3191 8.17 98.0031 8.59C98.6991 8.998 99.2451 9.568 99.6411 10.3C100.037 11.02 100.235 11.848 100.235 12.784C100.235 13.732 100.031 14.578 99.6231 15.322C99.2151 16.054 98.6691 16.63 97.9851 17.05C97.3131 17.47 96.5631 17.68 95.7351 17.68C95.0991 17.68 94.4871 17.542 93.8991 17.266C93.3231 16.978 92.8311 16.588 92.4231 16.096C92.0271 15.604 91.7751 15.052 91.6671 14.44L91.7751 14.494V21.64H91.3791ZM95.7171 17.284C96.5211 17.284 97.2351 17.092 97.8591 16.708C98.4831 16.324 98.9691 15.796 99.3171 15.124C99.6651 14.44 99.8391 13.66 99.8391 12.784C99.8391 11.932 99.6651 11.176 99.3171 10.516C98.9691 9.844 98.4831 9.316 97.8591 8.932C97.2351 8.548 96.5091 8.356 95.6811 8.356C94.9491 8.356 94.2831 8.548 93.6831 8.932C93.0951 9.304 92.6271 9.826 92.2791 10.498C91.9431 11.17 91.7751 11.944 91.7751 12.82C91.7751 13.684 91.9431 14.452 92.2791 15.124C92.6271 15.796 93.0951 16.324 93.6831 16.708C94.2831 17.092 94.9611 17.284 95.7171 17.284ZM55.358 37.71C54.28 37.71 53.286 37.528 52.376 37.164C51.48 36.786 50.696 36.261 50.024 35.589C49.366 34.903 48.855 34.098 48.491 33.174C48.127 32.236 47.945 31.214 47.945 30.108C47.945 29.03 48.134 28.036 48.512 27.126C48.89 26.202 49.422 25.404 50.108 24.732C50.794 24.046 51.599 23.514 52.523 23.136C53.447 22.758 54.448 22.569 55.526 22.569C56.226 22.569 56.912 22.667 57.584 22.863C58.27 23.045 58.893 23.318 59.453 23.682C60.027 24.046 60.517 24.48 60.923 24.984L58.949 27.168C58.613 26.832 58.263 26.545 57.899 26.307C57.549 26.055 57.171 25.866 56.765 25.74C56.373 25.6 55.953 25.53 55.505 25.53C54.903 25.53 54.336 25.642 53.804 25.866C53.286 26.09 52.831 26.405 52.439 26.811C52.047 27.203 51.732 27.686 51.494 28.26C51.27 28.82 51.158 29.443 51.158 30.129C51.158 30.829 51.27 31.466 51.494 32.04C51.718 32.6 52.033 33.083 52.439 33.489C52.845 33.881 53.328 34.189 53.888 34.413C54.462 34.623 55.092 34.728 55.778 34.728C56.226 34.728 56.66 34.665 57.08 34.539C57.5 34.413 57.885 34.238 58.235 34.014C58.599 33.79 58.921 33.531 59.201 33.237L60.734 35.694C60.398 36.072 59.943 36.415 59.369 36.723C58.809 37.031 58.179 37.276 57.479 37.458C56.779 37.626 56.072 37.71 55.358 37.71ZM68.2405 37.71C67.0365 37.71 65.9865 37.465 65.0905 36.975C64.1945 36.485 63.4945 35.813 62.9905 34.959C62.4865 34.105 62.2345 33.125 62.2345 32.019C62.2345 31.165 62.3745 30.381 62.6545 29.667C62.9345 28.953 63.3265 28.337 63.8305 27.819C64.3345 27.287 64.9295 26.881 65.6155 26.601C66.3155 26.307 67.0715 26.16 67.8835 26.16C68.6395 26.16 69.3395 26.3 69.9835 26.58C70.6275 26.846 71.1805 27.231 71.6425 27.735C72.1185 28.225 72.4825 28.806 72.7345 29.478C72.9865 30.15 73.0985 30.885 73.0705 31.683L73.0495 32.607H64.1245L63.6415 30.78H70.5925L70.2565 31.158V30.696C70.2285 30.318 70.1025 29.975 69.8785 29.667C69.6685 29.359 69.3955 29.121 69.0595 28.953C68.7235 28.785 68.3455 28.701 67.9255 28.701C67.3095 28.701 66.7845 28.82 66.3505 29.058C65.9305 29.296 65.6085 29.646 65.3845 30.108C65.1605 30.57 65.0485 31.13 65.0485 31.788C65.0485 32.46 65.1885 33.041 65.4685 33.531C65.7625 34.021 66.1685 34.406 66.6865 34.686C67.2185 34.952 67.8415 35.085 68.5555 35.085C69.0455 35.085 69.4935 35.008 69.8995 34.854C70.3055 34.7 70.7395 34.434 71.2015 34.056L72.6295 36.051C72.2235 36.415 71.7755 36.723 71.2855 36.975C70.7955 37.213 70.2915 37.395 69.7735 37.521C69.2555 37.647 68.7445 37.71 68.2405 37.71ZM75.2742 37.5V26.391H78.1302L78.2142 28.659L77.6262 28.911C77.7802 28.407 78.0532 27.952 78.4452 27.546C78.8512 27.126 79.3342 26.79 79.8942 26.538C80.4542 26.286 81.0422 26.16 81.6582 26.16C82.4982 26.16 83.1982 26.328 83.7582 26.664C84.3322 27 84.7592 27.511 85.0392 28.197C85.3332 28.869 85.4802 29.702 85.4802 30.696V37.5H82.4982V30.927C82.4982 30.423 82.4282 30.003 82.2882 29.667C82.1482 29.331 81.9312 29.086 81.6372 28.932C81.3572 28.764 81.0072 28.694 80.5872 28.722C80.2512 28.722 79.9362 28.778 79.6422 28.89C79.3622 28.988 79.1172 29.135 78.9072 29.331C78.7112 29.527 78.5502 29.751 78.4242 30.003C78.3122 30.255 78.2562 30.528 78.2562 30.822V37.5H76.7862C76.4642 37.5 76.1772 37.5 75.9252 37.5C75.6732 37.5 75.4562 37.5 75.2742 37.5ZM89.4087 37.5V23.577H92.3907V37.5H89.4087ZM87.3297 29.058V26.391H94.6587V29.058H87.3297ZM96.6023 37.5V26.391H99.4793L99.5843 29.961L99.0803 29.226C99.2483 28.652 99.5213 28.134 99.8993 27.672C100.277 27.196 100.718 26.825 101.222 26.559C101.74 26.293 102.279 26.16 102.839 26.16C103.077 26.16 103.308 26.181 103.532 26.223C103.756 26.265 103.945 26.314 104.099 26.37L103.301 29.646C103.133 29.562 102.93 29.492 102.692 29.436C102.454 29.366 102.209 29.331 101.957 29.331C101.621 29.331 101.306 29.394 101.012 29.52C100.732 29.632 100.487 29.8 100.277 30.024C100.067 30.234 99.8993 30.486 99.7733 30.78C99.6613 31.074 99.6053 31.396 99.6053 31.746V37.5H96.6023ZM109.497 37.71C108.573 37.71 107.74 37.458 106.998 36.954C106.256 36.45 105.668 35.764 105.234 34.896C104.8 34.028 104.583 33.034 104.583 31.914C104.583 30.794 104.8 29.807 105.234 28.953C105.682 28.085 106.284 27.406 107.04 26.916C107.796 26.412 108.657 26.16 109.623 26.16C110.169 26.16 110.666 26.244 111.114 26.412C111.576 26.566 111.975 26.783 112.311 27.063C112.661 27.343 112.955 27.665 113.193 28.029C113.431 28.393 113.599 28.785 113.697 29.205L113.067 29.1V26.391H116.028V37.5H113.025V34.833L113.697 34.77C113.585 35.162 113.403 35.533 113.151 35.883C112.899 36.233 112.584 36.548 112.206 36.828C111.842 37.094 111.429 37.311 110.967 37.479C110.505 37.633 110.015 37.71 109.497 37.71ZM110.316 35.127C110.876 35.127 111.366 34.994 111.786 34.728C112.206 34.462 112.528 34.091 112.752 33.615C112.99 33.125 113.109 32.558 113.109 31.914C113.109 31.284 112.99 30.731 112.752 30.255C112.528 29.779 112.206 29.408 111.786 29.142C111.366 28.862 110.876 28.722 110.316 28.722C109.77 28.722 109.287 28.862 108.867 29.142C108.461 29.408 108.139 29.779 107.901 30.255C107.663 30.731 107.544 31.284 107.544 31.914C107.544 32.558 107.663 33.125 107.901 33.615C108.139 34.091 108.461 34.462 108.867 34.728C109.287 34.994 109.77 35.127 110.316 35.127ZM119.038 37.5V21.96H122.02V37.5H119.038Z" fill="#01575C"/>
<defs>
<clipPath id="clip0_1_1307">
<rect width="40" height="41" fill="white" transform="translate(0 0.5)"/>
</clipPath>
</defs>
</svg>
