<svg width="226" height="150" viewBox="0 0 226 150" fill="none" xmlns="http://www.w3.org/2000/svg">
<path d="M32.5941 80.561C32.5941 82.5657 33.0341 84.1047 33.6092 85.0359C34.3632 86.2554 35.4878 86.7721 36.6344 86.7721C38.1132 86.7721 39.4661 86.4051 42.0732 82.7994C44.1618 79.9093 46.6228 75.8525 48.2787 73.3093L51.083 69.0007C53.0311 66.0083 55.2858 62.6819 57.871 60.4272C59.9815 58.5868 62.2582 57.5645 64.5494 57.5645C68.3962 57.5645 72.0604 59.7936 74.8647 63.9745C77.9337 68.5534 79.4235 74.3208 79.4235 80.2726C79.4235 83.8108 78.726 86.4106 77.5393 88.4645C76.3928 90.4509 74.1581 92.4354 70.399 92.4354V86.7721C73.6177 86.7721 74.421 83.8145 74.421 80.4296C74.421 75.6061 73.2964 70.2531 70.8189 66.4283C69.0608 63.7153 66.7823 62.0575 64.2756 62.0575C61.5644 62.0575 59.3827 64.1023 56.9308 67.7482C55.6272 69.6853 54.289 72.046 52.7864 74.7097L51.1323 77.6399C47.8095 83.5315 46.9679 84.8734 45.3065 87.0879C42.3945 90.9657 39.9079 92.4354 36.6344 92.4354C32.7511 92.4354 30.2955 90.754 28.7747 88.2199C27.5332 86.155 26.9235 83.4457 26.9235 80.3584L32.5941 80.561Z" fill="#01575C"/>
<path d="M31.3942 64.3743C33.994 60.3669 37.7459 57.5645 42.049 57.5645C44.5411 57.5645 47.0186 58.302 49.6056 60.4144C52.4355 62.7239 55.4516 66.5268 59.2143 72.7945L60.5635 75.0438C63.8206 80.4698 65.6737 83.2613 66.7581 84.5776C68.153 86.2682 69.1297 86.7721 70.3986 86.7721C73.6173 86.7721 74.4206 83.8145 74.4206 80.4296L79.4231 80.2726C79.4231 83.8108 78.7257 86.4106 77.5389 88.4645C76.3924 90.4509 74.1577 92.4354 70.3986 92.4354C68.0617 92.4354 65.9914 91.9279 63.7019 89.7681C61.9419 88.1103 59.8844 85.1655 58.3015 82.5182L53.593 74.6531C51.2305 70.7059 49.0634 67.7628 47.8091 66.4301C46.46 64.9969 44.7255 63.2661 41.9578 63.2661C39.7176 63.2661 37.8152 64.8381 36.2232 67.2425L31.3942 64.3743Z" fill="#01575C"/>
<path d="M41.9581 63.2661C39.718 63.2661 37.8156 64.8381 36.2236 67.2425C33.9725 70.6402 32.5941 75.701 32.5941 80.561C32.5941 82.5657 33.0341 84.1047 33.6092 85.0359L28.7747 88.2199C27.5332 86.155 26.9235 83.4457 26.9235 80.3584C26.9235 74.7443 28.4644 68.893 31.3946 64.3743C33.9944 60.3669 37.7462 57.5645 42.0494 57.5645L41.9581 63.2661Z" fill="#01575C"/>
<path d="M90.4467 58.6672H97.0065L108.16 78.8449L119.315 58.6672H125.732V91.8221H120.381V66.4119L110.599 84.008H105.578L95.7979 66.4119V91.8221H90.4467V58.6672ZM142.499 71.0291C138.662 71.0291 136.35 73.9174 135.797 77.4939H148.822C148.553 73.8096 146.428 71.0291 142.499 71.0291ZM130.492 79.5314C130.492 72.0058 135.355 66.5287 142.593 66.5287C149.711 66.5287 153.961 71.9365 153.961 79.9331V81.4028H135.797C136.442 85.2933 139.023 87.915 143.186 87.915C146.507 87.915 148.583 86.9018 150.551 85.0487L153.393 88.5303C150.715 90.9932 147.308 92.4136 142.996 92.4136C135.162 92.4136 130.492 86.701 130.492 79.5314ZM160.45 71.5038H155.524V67.1221H160.45V59.8759H165.613V67.1221H173.096V71.5038H165.613V82.6095C165.613 86.4015 166.825 87.7489 169.805 87.7489C171.165 87.7489 171.944 87.6321 173.096 87.4404V91.7746C171.661 92.1799 170.292 92.3661 168.81 92.3661C163.236 92.3661 160.45 89.3208 160.45 83.2248V71.5038ZM194.837 75.765C193.8 73.1469 191.487 71.219 188.087 71.219C183.669 71.219 180.841 74.3537 180.841 79.4602C180.841 84.4389 183.445 87.7252 187.876 87.7252C191.359 87.7252 193.846 85.6986 194.837 83.1773V75.765ZM200 91.8221H194.932V88.3642C193.515 90.3998 190.937 92.4136 186.762 92.4136C180.047 92.4136 175.559 86.7922 175.559 79.4602C175.559 72.0588 180.155 66.5287 187.047 66.5287C190.453 66.5287 193.126 67.8907 194.932 70.2952V67.1221H200V91.8221Z" fill="#01575C"/>
</svg>
