<svg width="226" height="150" viewBox="0 0 226 150" fill="none" xmlns="http://www.w3.org/2000/svg">
<path d="M87.4364 77.8087L86.4003 80.732H86.3139C86.1412 80.0728 85.8246 79.0697 85.3065 77.866L79.7515 63.966H74.3117V86.12H77.9095V72.4493C77.9095 71.5895 77.9095 70.615 77.8807 69.4113C77.8519 68.8095 77.7943 68.3509 77.7656 68.007H77.8519C78.0246 68.8668 78.2261 69.4973 78.37 69.8985L85.0475 86.0627H87.5803L94.2003 69.7552C94.3442 69.3827 94.4881 68.6375 94.632 68.007H94.7184C94.632 69.6406 94.5744 71.1023 94.5457 71.9907V86.034H98.3737V63.9086H93.1353L87.4364 77.8087ZM102 70.1565H105.742V86.034H102V70.1565ZM103.9 63.4501C103.267 63.4501 102.749 63.6794 102.317 64.0806C101.885 64.4818 101.655 64.9977 101.655 65.6282C101.655 66.2301 101.885 66.746 102.317 67.1472C102.749 67.5484 103.267 67.7491 103.9 67.7491C104.533 67.7491 105.08 67.5198 105.483 67.1472C105.915 66.746 106.145 66.2301 106.145 65.6282C106.145 65.0264 105.915 64.5105 105.483 64.0806C105.109 63.6794 104.562 63.4501 103.9 63.4501ZM119.011 70.0132C118.32 69.8699 117.6 69.7839 116.91 69.7839C115.211 69.7839 113.657 70.1565 112.362 70.9016C111.067 71.6468 110.031 72.6786 109.369 73.9682C108.678 75.2866 108.332 76.8056 108.332 78.5538C108.332 80.0728 108.678 81.4198 109.34 82.6522C110.002 83.8559 110.923 84.8303 112.16 85.4895C113.341 86.1487 114.722 86.4926 116.276 86.4926C118.061 86.4926 119.586 86.12 120.795 85.4322L120.824 85.4035V81.9644L120.68 82.079C120.133 82.4802 119.5 82.8241 118.867 83.0248C118.205 83.254 117.6 83.3687 117.082 83.3687C115.586 83.3687 114.405 82.9388 113.571 81.993C112.707 81.0759 112.276 79.8149 112.276 78.2386C112.276 76.605 112.707 75.3153 113.6 74.3695C114.492 73.4237 115.672 72.9365 117.111 72.9365C118.32 72.9365 119.558 73.3377 120.68 74.1402L120.824 74.2548V70.615L120.795 70.5864C120.306 70.3858 119.759 70.1565 119.011 70.0132ZM131.358 69.8985C130.437 69.8985 129.574 70.1851 128.825 70.787C128.192 71.3029 127.76 72.048 127.386 72.9365H127.358V70.1565H123.616V86.034H127.358V77.9233C127.358 76.5476 127.645 75.4012 128.279 74.5701C128.912 73.7103 129.718 73.2804 130.696 73.2804C131.042 73.2804 131.387 73.3664 131.819 73.4237C132.222 73.5384 132.51 73.653 132.711 73.7963L132.855 73.9109V70.1851L132.769 70.1565C132.51 69.9845 131.991 69.8985 131.358 69.8985ZM141.547 69.8126C138.928 69.8126 136.827 70.5864 135.359 72.1054C133.862 73.6243 133.143 75.7165 133.143 78.3532C133.143 80.818 133.891 82.8241 135.33 84.2858C136.769 85.7188 138.727 86.4639 141.173 86.4639C143.735 86.4639 145.778 85.6901 147.246 84.1425C148.743 82.5949 149.462 80.5314 149.462 77.9806C149.462 75.4586 148.772 73.4524 147.361 71.9907C146.008 70.5291 144.023 69.8126 141.547 69.8126ZM144.541 82.0217C143.85 82.9101 142.756 83.34 141.403 83.34C140.051 83.34 138.957 82.9101 138.18 81.9644C137.403 81.0759 137.028 79.7862 137.028 78.1526C137.028 76.4617 137.431 75.172 138.18 74.2548C138.957 73.3377 140.022 72.8792 141.375 72.8792C142.699 72.8792 143.735 73.3091 144.483 74.1975C145.231 75.086 145.634 76.3757 145.634 78.0666C145.577 79.7862 145.26 81.1332 144.541 82.0217ZM157.809 76.7483C156.629 76.261 155.881 75.8885 155.535 75.5732C155.248 75.2866 155.104 74.8854 155.104 74.3695C155.104 73.9396 155.276 73.5097 155.708 73.2231C156.14 72.9365 156.629 72.7932 157.349 72.7932C157.982 72.7932 158.644 72.9078 159.277 73.0798C159.91 73.2518 160.486 73.5097 160.947 73.8536L161.09 73.9682V70.4717L161.004 70.4431C160.572 70.2711 159.997 70.0992 159.306 69.9559C158.615 69.8412 157.982 69.7839 157.464 69.7839C155.679 69.7839 154.211 70.2138 153.06 71.1596C151.909 72.048 151.362 73.2518 151.362 74.6561C151.362 75.4012 151.477 76.0604 151.736 76.605C151.995 77.1495 152.369 77.6654 152.887 78.0953C153.406 78.4965 154.154 78.9551 155.19 79.385C156.054 79.7575 156.716 80.0441 157.118 80.2734C157.521 80.5027 157.78 80.7606 157.982 80.9613C158.126 81.1905 158.212 81.4771 158.212 81.8497C158.212 82.9101 157.406 83.426 155.766 83.426C155.132 83.426 154.47 83.3114 153.693 83.0534C152.916 82.7955 152.197 82.4229 151.592 81.993L151.448 81.8784V85.5182L151.535 85.5468C152.082 85.8048 152.744 85.9767 153.549 86.1773C154.355 86.3207 155.075 86.4353 155.708 86.4353C157.637 86.4353 159.22 86.0054 160.342 85.0596C161.493 84.1425 162.098 82.9674 162.098 81.4485C162.098 80.3881 161.81 79.4423 161.177 78.7258C160.342 78.0379 159.306 77.3215 157.809 76.7483ZM171.97 69.8126C169.351 69.8126 167.25 70.5864 165.782 72.1054C164.314 73.6243 163.566 75.7165 163.566 78.3532C163.566 80.818 164.314 82.8241 165.753 84.2858C167.192 85.7188 169.149 86.4639 171.596 86.4639C174.158 86.4639 176.201 85.6901 177.669 84.1425C179.166 82.5949 179.885 80.5314 179.885 77.9806C179.885 75.4586 179.195 73.4524 177.784 71.9907C176.431 70.5291 174.445 69.8126 171.97 69.8126ZM174.935 82.0217C174.244 82.9101 173.15 83.34 171.797 83.34C170.416 83.34 169.351 82.9101 168.574 81.9644C167.797 81.0759 167.423 79.7862 167.423 78.1526C167.423 76.4617 167.826 75.172 168.574 74.2548C169.351 73.3377 170.416 72.8792 171.769 72.8792C173.064 72.8792 174.129 73.3091 174.877 74.1975C175.626 75.086 176.028 76.3757 176.028 78.0666C176.028 79.7862 175.654 81.1332 174.935 82.0217ZM199.889 73.2231V70.1565H196.119V65.4563L196.003 65.4849L192.434 66.5453L192.348 66.574V70.1565H186.707V68.1503C186.707 67.2332 186.937 66.5167 187.34 66.0581C187.743 65.5996 188.347 65.3703 189.096 65.3703C189.614 65.3703 190.161 65.4849 190.765 65.7429L190.909 65.8288V62.5903L190.823 62.5616C190.305 62.3897 189.614 62.275 188.721 62.275C187.599 62.275 186.62 62.533 185.728 62.9629C184.836 63.4501 184.174 64.1093 183.685 64.9977C183.195 65.8575 182.936 66.8319 182.936 67.9497V70.1565H180.317V73.1944H182.936V86.034H186.707V73.2231H192.348V81.3912C192.348 84.7444 193.931 86.4353 197.097 86.4353C197.615 86.4353 198.162 86.3493 198.68 86.2633C199.227 86.1487 199.63 86.0054 199.86 85.8908L199.889 85.8621V82.7955L199.745 82.9101C199.515 83.0534 199.313 83.1681 198.968 83.254C198.68 83.34 198.421 83.3687 198.22 83.3687C197.471 83.3687 196.953 83.1967 196.579 82.7668C196.234 82.3656 196.061 81.7064 196.061 80.732V73.2231H199.889Z" fill="#01575C"/>
<path d="M26.0725 56.5144H43.7161V74.0829H26.0725V56.5144Z" fill="#01575C"/>
<path d="M45.5586 56.5144H63.2022V74.0829H45.5586V56.5144Z" fill="#01575C"/>
<path d="M26.0725 75.9171H43.7161V93.4856H26.0725V75.9171Z" fill="#01575C"/>
<path d="M45.5586 75.917H63.2022V93.4855H45.5586V75.917Z" fill="#01575C"/>
</svg>
