<svg width="129" height="41" viewBox="0 0 129 41" fill="none" xmlns="http://www.w3.org/2000/svg">
<g clip-path="url(#clip0_1_630)">
<path fill-rule="evenodd" clip-rule="evenodd" d="M13.7146 0.516113C11.4582 0.516113 9.2943 1.41245 7.69881 3.00794L0 10.7067V14.2307C0 16.7204 1.06944 18.9603 2.77401 20.5161C1.06944 22.0719 0 24.3118 0 26.8015V30.3255L7.69881 38.0243C9.2943 39.6198 11.4582 40.5161 13.7146 40.5161C16.2043 40.5161 18.4442 39.4467 20 37.7421C21.5558 39.4467 23.7957 40.5161 26.2854 40.5161C28.5418 40.5161 30.7057 39.6198 32.3012 38.0243L40 30.3255V26.8015C40 24.3118 38.9306 22.0719 37.226 20.5161C38.9306 18.9603 40 16.7204 40 14.2307V10.7067L32.3012 3.00794C30.7057 1.41245 28.5418 0.516113 26.2854 0.516113C23.7957 0.516113 21.5558 1.58555 20 3.29012C18.4442 1.58555 16.2043 0.516113 13.7146 0.516113ZM25.7588 20.5161C25.6629 20.4286 25.5688 20.3387 25.4766 20.2465L20 14.7699L14.5234 20.2465C14.4312 20.3387 14.3371 20.4286 14.2412 20.5161C14.3371 20.6036 14.4312 20.6935 14.5234 20.7857L20 26.2623L25.4766 20.7857C25.5688 20.6935 25.6629 20.6036 25.7588 20.5161ZM22.2222 30.3255V32.0085C22.2222 34.2525 24.0414 36.0717 26.2854 36.0717C27.363 36.0717 28.3965 35.6436 29.1585 34.8816L35.5556 28.4845V26.8015C35.5556 24.5575 33.7364 22.7383 31.4924 22.7383C30.4148 22.7383 29.3813 23.1664 28.6193 23.9284L22.2222 30.3255ZM17.7778 30.3255L11.3807 23.9284C10.6187 23.1664 9.58524 22.7383 8.50762 22.7383C6.26359 22.7383 4.44444 24.5575 4.44444 26.8015V28.4845L10.8415 34.8816C11.6035 35.6436 12.637 36.0717 13.7146 36.0717C15.9586 36.0717 17.7778 34.2525 17.7778 32.0085V30.3255ZM17.7778 9.02373V10.7067L11.3807 17.1038C10.6187 17.8658 9.58524 18.2939 8.50762 18.2939C6.26359 18.2939 4.44444 16.4747 4.44444 14.2307V12.5477L10.8415 6.15063C11.6035 5.38864 12.637 4.96056 13.7146 4.96056C15.9586 4.96056 17.7778 6.7797 17.7778 9.02373ZM28.6193 17.1038L22.2222 10.7067V9.02373C22.2222 6.7797 24.0414 4.96056 26.2854 4.96056C27.363 4.96056 28.3965 5.38864 29.1585 6.15063L35.5556 12.5477V14.2307C35.5556 16.4747 33.7364 18.2939 31.4924 18.2939C30.4148 18.2939 29.3813 17.8658 28.6193 17.1038Z" fill="#E1F396"/>
</g>
<path d="M52.454 17.18C51.746 17.18 51.098 17.096 50.51 16.928C49.922 16.748 49.4 16.49 48.944 16.154C48.488 15.818 48.098 15.41 47.774 14.93L48.098 14.642C48.554 15.35 49.148 15.884 49.88 16.244C50.612 16.604 51.47 16.784 52.454 16.784C53.126 16.784 53.732 16.664 54.272 16.424C54.824 16.172 55.262 15.83 55.586 15.398C55.91 14.966 56.072 14.468 56.072 13.904C56.072 13.556 56 13.25 55.856 12.986C55.724 12.722 55.532 12.488 55.28 12.284C55.028 12.08 54.722 11.9 54.362 11.744C54.014 11.576 53.618 11.42 53.174 11.276C52.73 11.132 52.256 10.988 51.752 10.844C51.188 10.688 50.684 10.514 50.24 10.322C49.796 10.118 49.418 9.89 49.106 9.638C48.806 9.374 48.572 9.074 48.404 8.738C48.248 8.39 48.17 7.988 48.17 7.532C48.17 7.064 48.272 6.626 48.476 6.218C48.692 5.81 48.98 5.462 49.34 5.174C49.712 4.874 50.144 4.64 50.636 4.472C51.14 4.304 51.68 4.22 52.256 4.22C52.904 4.22 53.474 4.292 53.966 4.436C54.458 4.568 54.884 4.772 55.244 5.048C55.604 5.312 55.922 5.63 56.198 6.002L55.892 6.272C55.628 5.924 55.328 5.63 54.992 5.39C54.656 5.138 54.26 4.946 53.804 4.814C53.36 4.682 52.844 4.616 52.256 4.616C51.572 4.616 50.948 4.742 50.384 4.994C49.832 5.246 49.394 5.594 49.07 6.038C48.746 6.47 48.584 6.968 48.584 7.532C48.584 7.94 48.662 8.3 48.818 8.612C48.974 8.912 49.196 9.182 49.484 9.422C49.772 9.65 50.12 9.848 50.528 10.016C50.936 10.184 51.392 10.334 51.896 10.466C52.616 10.646 53.258 10.838 53.822 11.042C54.386 11.246 54.866 11.48 55.262 11.744C55.658 12.008 55.958 12.32 56.162 12.68C56.378 13.028 56.486 13.436 56.486 13.904C56.486 14.528 56.306 15.086 55.946 15.578C55.598 16.07 55.118 16.46 54.506 16.748C53.894 17.036 53.21 17.18 52.454 17.18ZM58.7249 13.778V13.202L64.4309 7.55H65.0069L58.7249 13.778ZM58.4729 17V3.68H58.8689V17H58.4729ZM65.0609 17L60.5069 11.762L60.8129 11.474L65.6189 17H65.0609ZM67.3394 17V7.55H67.7354V17H67.3394ZM67.5374 5.066C67.3694 5.066 67.2434 5.018 67.1594 4.922C67.0754 4.826 67.0334 4.7 67.0334 4.544C67.0334 4.4 67.0754 4.28 67.1594 4.184C67.2434 4.076 67.3694 4.022 67.5374 4.022C67.6934 4.022 67.8134 4.07 67.8974 4.166C67.9934 4.262 68.0414 4.388 68.0414 4.544C68.0414 4.7 67.9994 4.826 67.9154 4.922C67.8314 5.018 67.7054 5.066 67.5374 5.066ZM70.9626 17V3.68H71.3586V17H70.9626ZM74.6716 17V3.68H75.0676V17H74.6716ZM83.3486 17.108C82.4486 17.108 81.6446 16.898 80.9366 16.478C80.2406 16.046 79.6946 15.458 79.2986 14.714C78.9026 13.97 78.7046 13.118 78.7046 12.158V4.4H79.1006V11.996C79.1006 12.92 79.2806 13.736 79.6406 14.444C80.0006 15.152 80.4986 15.71 81.1346 16.118C81.7706 16.514 82.5086 16.712 83.3486 16.712C84.2126 16.712 84.9746 16.514 85.6346 16.118C86.2946 15.71 86.8106 15.152 87.1826 14.444C87.5546 13.736 87.7406 12.92 87.7406 11.996V4.4H88.1366V12.158C88.1366 13.118 87.9266 13.97 87.5066 14.714C87.0986 15.458 86.5346 16.046 85.8146 16.478C85.0946 16.898 84.2726 17.108 83.3486 17.108ZM91.3791 21.14V7.55H91.7391L91.7751 10.736L91.6131 10.79C91.7691 10.142 92.0451 9.566 92.4411 9.062C92.8371 8.558 93.3111 8.168 93.8631 7.892C94.4151 7.604 95.0151 7.46 95.6631 7.46C96.5391 7.46 97.3191 7.67 98.0031 8.09C98.6991 8.498 99.2451 9.068 99.6411 9.8C100.037 10.52 100.235 11.348 100.235 12.284C100.235 13.232 100.031 14.078 99.6231 14.822C99.2151 15.554 98.6691 16.13 97.9851 16.55C97.3131 16.97 96.5631 17.18 95.7351 17.18C95.0991 17.18 94.4871 17.042 93.8991 16.766C93.3231 16.478 92.8311 16.088 92.4231 15.596C92.0271 15.104 91.7751 14.552 91.6671 13.94L91.7751 13.994V21.14H91.3791ZM95.7171 16.784C96.5211 16.784 97.2351 16.592 97.8591 16.208C98.4831 15.824 98.9691 15.296 99.3171 14.624C99.6651 13.94 99.8391 13.16 99.8391 12.284C99.8391 11.432 99.6651 10.676 99.3171 10.016C98.9691 9.344 98.4831 8.816 97.8591 8.432C97.2351 8.048 96.5091 7.856 95.6811 7.856C94.9491 7.856 94.2831 8.048 93.6831 8.432C93.0951 8.804 92.6271 9.326 92.2791 9.998C91.9431 10.67 91.7751 11.444 91.7751 12.32C91.7751 13.184 91.9431 13.952 92.2791 14.624C92.6271 15.296 93.0951 15.824 93.6831 16.208C94.2831 16.592 94.9611 16.784 95.7171 16.784ZM55.358 37.21C54.28 37.21 53.286 37.028 52.376 36.664C51.48 36.286 50.696 35.761 50.024 35.089C49.366 34.403 48.855 33.598 48.491 32.674C48.127 31.736 47.945 30.714 47.945 29.608C47.945 28.53 48.134 27.536 48.512 26.626C48.89 25.702 49.422 24.904 50.108 24.232C50.794 23.546 51.599 23.014 52.523 22.636C53.447 22.258 54.448 22.069 55.526 22.069C56.226 22.069 56.912 22.167 57.584 22.363C58.27 22.545 58.893 22.818 59.453 23.182C60.027 23.546 60.517 23.98 60.923 24.484L58.949 26.668C58.613 26.332 58.263 26.045 57.899 25.807C57.549 25.555 57.171 25.366 56.765 25.24C56.373 25.1 55.953 25.03 55.505 25.03C54.903 25.03 54.336 25.142 53.804 25.366C53.286 25.59 52.831 25.905 52.439 26.311C52.047 26.703 51.732 27.186 51.494 27.76C51.27 28.32 51.158 28.943 51.158 29.629C51.158 30.329 51.27 30.966 51.494 31.54C51.718 32.1 52.033 32.583 52.439 32.989C52.845 33.381 53.328 33.689 53.888 33.913C54.462 34.123 55.092 34.228 55.778 34.228C56.226 34.228 56.66 34.165 57.08 34.039C57.5 33.913 57.885 33.738 58.235 33.514C58.599 33.29 58.921 33.031 59.201 32.737L60.734 35.194C60.398 35.572 59.943 35.915 59.369 36.223C58.809 36.531 58.179 36.776 57.479 36.958C56.779 37.126 56.072 37.21 55.358 37.21ZM68.2405 37.21C67.0365 37.21 65.9865 36.965 65.0905 36.475C64.1945 35.985 63.4945 35.313 62.9905 34.459C62.4865 33.605 62.2345 32.625 62.2345 31.519C62.2345 30.665 62.3745 29.881 62.6545 29.167C62.9345 28.453 63.3265 27.837 63.8305 27.319C64.3345 26.787 64.9295 26.381 65.6155 26.101C66.3155 25.807 67.0715 25.66 67.8835 25.66C68.6395 25.66 69.3395 25.8 69.9835 26.08C70.6275 26.346 71.1805 26.731 71.6425 27.235C72.1185 27.725 72.4825 28.306 72.7345 28.978C72.9865 29.65 73.0985 30.385 73.0705 31.183L73.0495 32.107H64.1245L63.6415 30.28H70.5925L70.2565 30.658V30.196C70.2285 29.818 70.1025 29.475 69.8785 29.167C69.6685 28.859 69.3955 28.621 69.0595 28.453C68.7235 28.285 68.3455 28.201 67.9255 28.201C67.3095 28.201 66.7845 28.32 66.3505 28.558C65.9305 28.796 65.6085 29.146 65.3845 29.608C65.1605 30.07 65.0485 30.63 65.0485 31.288C65.0485 31.96 65.1885 32.541 65.4685 33.031C65.7625 33.521 66.1685 33.906 66.6865 34.186C67.2185 34.452 67.8415 34.585 68.5555 34.585C69.0455 34.585 69.4935 34.508 69.8995 34.354C70.3055 34.2 70.7395 33.934 71.2015 33.556L72.6295 35.551C72.2235 35.915 71.7755 36.223 71.2855 36.475C70.7955 36.713 70.2915 36.895 69.7735 37.021C69.2555 37.147 68.7445 37.21 68.2405 37.21ZM75.2742 37V25.891H78.1302L78.2142 28.159L77.6262 28.411C77.7802 27.907 78.0532 27.452 78.4452 27.046C78.8512 26.626 79.3342 26.29 79.8942 26.038C80.4542 25.786 81.0422 25.66 81.6582 25.66C82.4982 25.66 83.1982 25.828 83.7582 26.164C84.3322 26.5 84.7592 27.011 85.0392 27.697C85.3332 28.369 85.4802 29.202 85.4802 30.196V37H82.4982V30.427C82.4982 29.923 82.4282 29.503 82.2882 29.167C82.1482 28.831 81.9312 28.586 81.6372 28.432C81.3572 28.264 81.0072 28.194 80.5872 28.222C80.2512 28.222 79.9362 28.278 79.6422 28.39C79.3622 28.488 79.1172 28.635 78.9072 28.831C78.7112 29.027 78.5502 29.251 78.4242 29.503C78.3122 29.755 78.2562 30.028 78.2562 30.322V37H76.7862C76.4642 37 76.1772 37 75.9252 37C75.6732 37 75.4562 37 75.2742 37ZM89.4087 37V23.077H92.3907V37H89.4087ZM87.3297 28.558V25.891H94.6587V28.558H87.3297ZM96.6023 37V25.891H99.4793L99.5843 29.461L99.0803 28.726C99.2483 28.152 99.5213 27.634 99.8993 27.172C100.277 26.696 100.718 26.325 101.222 26.059C101.74 25.793 102.279 25.66 102.839 25.66C103.077 25.66 103.308 25.681 103.532 25.723C103.756 25.765 103.945 25.814 104.099 25.87L103.301 29.146C103.133 29.062 102.93 28.992 102.692 28.936C102.454 28.866 102.209 28.831 101.957 28.831C101.621 28.831 101.306 28.894 101.012 29.02C100.732 29.132 100.487 29.3 100.277 29.524C100.067 29.734 99.8993 29.986 99.7733 30.28C99.6613 30.574 99.6053 30.896 99.6053 31.246V37H96.6023ZM109.497 37.21C108.573 37.21 107.74 36.958 106.998 36.454C106.256 35.95 105.668 35.264 105.234 34.396C104.8 33.528 104.583 32.534 104.583 31.414C104.583 30.294 104.8 29.307 105.234 28.453C105.682 27.585 106.284 26.906 107.04 26.416C107.796 25.912 108.657 25.66 109.623 25.66C110.169 25.66 110.666 25.744 111.114 25.912C111.576 26.066 111.975 26.283 112.311 26.563C112.661 26.843 112.955 27.165 113.193 27.529C113.431 27.893 113.599 28.285 113.697 28.705L113.067 28.6V25.891H116.028V37H113.025V34.333L113.697 34.27C113.585 34.662 113.403 35.033 113.151 35.383C112.899 35.733 112.584 36.048 112.206 36.328C111.842 36.594 111.429 36.811 110.967 36.979C110.505 37.133 110.015 37.21 109.497 37.21ZM110.316 34.627C110.876 34.627 111.366 34.494 111.786 34.228C112.206 33.962 112.528 33.591 112.752 33.115C112.99 32.625 113.109 32.058 113.109 31.414C113.109 30.784 112.99 30.231 112.752 29.755C112.528 29.279 112.206 28.908 111.786 28.642C111.366 28.362 110.876 28.222 110.316 28.222C109.77 28.222 109.287 28.362 108.867 28.642C108.461 28.908 108.139 29.279 107.901 29.755C107.663 30.231 107.544 30.784 107.544 31.414C107.544 32.058 107.663 32.625 107.901 33.115C108.139 33.591 108.461 33.962 108.867 34.228C109.287 34.494 109.77 34.627 110.316 34.627ZM119.038 37V21.46H122.02V37H119.038Z" fill="white"/>
<defs>
<clipPath id="clip0_1_630">
<rect width="40" height="41" fill="white"/>
</clipPath>
</defs>
</svg>
