<svg width="46" height="46" viewBox="0 0 46 46" fill="none" xmlns="http://www.w3.org/2000/svg">
<path d="M13.999 44.0333C13.9219 44.7868 14.3405 45.5172 15.0531 45.774C15.7719 46.0331 16.567 45.7287 16.9894 45.0919C18.3201 43.0855 20.22 41.0951 22.7243 39.1333C28.2903 34.813 37.2022 31.8164 44.0995 32.2982C44.8693 32.3519 45.6043 31.9161 45.8659 31.1902C46.1254 30.4704 45.8448 29.6717 45.2205 29.2292C42.6702 27.4218 40.3815 25.0482 38.38 22.1626C34.0352 15.934 31.8099 8.32578 32.4543 2.19992C32.5347 1.43575 32.1123 0.692162 31.3895 0.431623C30.6776 0.175059 29.8891 0.465102 29.4653 1.09196C27.8045 3.5485 25.5866 5.72235 22.7691 7.73084C16.7633 12.0307 9.1755 14.166 2.26426 13.7285C1.50376 13.6803 0.78759 14.1211 0.529209 14.838C0.265175 15.5705 0.554264 16.3827 1.18976 16.8327C3.86321 18.7258 6.31004 21.3562 8.46446 24.6549C13.0737 31.6692 14.5402 38.7427 13.999 44.0333Z" fill="url(#paint0_linear_1_905)"/>
<defs>
<linearGradient id="paint0_linear_1_905" x1="31.0033" y1="-13.974" x2="20.6188" y2="96.2118" gradientUnits="userSpaceOnUse">
<stop stop-color="#E1F396"/>
<stop offset="1" stop-color="#E1F396"/>
</linearGradient>
</defs>
</svg>
