<svg width="38" height="39" viewBox="0 0 38 39" fill="none" xmlns="http://www.w3.org/2000/svg">
<path d="M13.7305 23.4388C13.7305 25.4813 15.298 27.128 17.2455 27.128H21.2196C22.9138 27.128 24.2913 25.6872 24.2913 23.9138C24.2913 21.9822 23.4521 21.3013 22.2013 20.858L15.8205 18.6413C14.5696 18.198 13.7305 17.5172 13.7305 15.5855C13.7305 13.8122 15.108 12.3713 16.8021 12.3713H20.7763C22.7238 12.3713 24.2913 14.018 24.2913 16.0605" stroke="#292D32" stroke-opacity="0.52" stroke-width="2.375" stroke-linecap="round" stroke-linejoin="round"/>
<path d="M19 10.25V29.25" stroke="#292D32" stroke-opacity="0.52" stroke-width="2.375" stroke-linecap="round" stroke-linejoin="round"/>
<path d="M19 35.5834C27.7445 35.5834 34.8333 28.4946 34.8333 19.7501C34.8333 11.0056 27.7445 3.91675 19 3.91675C10.2555 3.91675 3.16666 11.0056 3.16666 19.7501C3.16666 28.4946 10.2555 35.5834 19 35.5834Z" stroke="#292D32" stroke-opacity="0.52" stroke-width="2.375" stroke-linecap="round" stroke-linejoin="round"/>
</svg>
